<?xml version="1.0" standalone="no"?>
<!DOCTYPE svg PUBLIC "-//W3C//DTD SVG 20010904//EN"
 "http://www.w3.org/TR/2001/REC-SVG-20010904/DTD/svg10.dtd">
<svg version="1.0" xmlns="http://www.w3.org/2000/svg"
 width="576.000000pt" height="576.000000pt" viewBox="0 0 576.000000 576.000000"
 preserveAspectRatio="xMidYMid meet">

<g transform="translate(0.000000,576.000000) scale(0.100000,-0.100000)"
fill="#000000" stroke="none">
<path d="M3939 3805 c0 0 -15 -58 -33 -130 l-31 -130 -477 -3 -476 -2 -11 -52
c-7 -28 -43 -205 -82 -392 -38 -188 -72 -351 -76 -363 l-5 -23 392 0 c339 0
391 -2 387 -15 -4 -8 -29 -91 -58 -185 l-52 -170 -363 0 -363 0 -17 -77 c-10
-43 -67 -307 -129 -588 l-111 -510 -320 -3 -320 -2 -24 -213 c-31 -267 -30
-361 6 -434 32 -66 118 -160 184 -203 105 -67 128 -70 564 -70 440 0 436 0
575 77 86 47 217 178 264 263 65 119 75 165 158 768 43 316 79 578 79 583 0 6
-116 8 -291 7 l-292 -3 -121 -520 -122 -520 -359 3 c-198 1 -401 5 -452 8
l-92 6 5 46 c3 26 7 62 10 80 l5 32 309 0 c264 0 310 2 310 14 0 14 244 1101
256 1139 5 16 30 17 332 17 386 0 399 2 407 41 l7 29 139 0 c76 0 139 -2 139
-4 0 -2 -20 -72 -45 -155 -25 -83 -45 -154 -45 -157 0 -4 263 -5 584 -2 l585
6 67 31 c184 86 341 257 383 416 5 22 38 243 72 490 57 420 60 455 50 524 -22
146 -97 253 -215 308 l-61 28 -380 3 c-209 1 -485 3 -613 5 -127 1 -232 2
-233 2z m301 -247 c-1 -7 -20 -98 -43 -203 l-42 -190 -471 -3 -472 -2 -6 -32
c-21 -104 -23 -108 -70 -108 -24 0 -85 3 -135 7 l-93 6 5 26 c2 14 21 107 42
207 l38 181 276 6 c152 4 365 7 473 7 l197 0 16 55 16 55 135 0 c101 0 134 -3
134 -12z"/>
</g>
</svg>
